<svg id="10015.io" viewBox="0 0 480 480" xmlns="http://www.w3.org/2000/svg" xmlns:xlink="http://www.w3.org/1999/xlink" >
	<path fill="#5e6a75" d="M386.5,261.5Q374,283,402.5,331Q431,379,377,366.5Q323,354,309,382Q295,410,267.5,401Q240,392,207,418Q174,444,155.5,413Q137,382,133,351.5Q129,321,83.5,313.5Q38,306,23,273Q8,240,49.5,216Q91,192,88,159.5Q85,127,106.5,106Q128,85,162.5,96Q197,107,218.5,87.5Q240,68,260.5,90.5Q281,113,311.5,106.5Q342,100,378,106.5Q414,113,435.5,141.5Q457,170,428,205Q399,240,386.5,261.5Z" />
</svg>